HIERARCHY
ROOT Hips
{
	OFFSET -3.958830 18.904000 13.208200
	CHANNELS 6 Xposition Yposition Zposition Zrotation Yrotation Xrotation 
	JOINT LHipJoint
	{
		OFFSET 0.000000 0.000000 0.000000
		CHANNELS 3 Zrotation Yrotation Xrotation
		JOINT LeftUpLeg
		{
			OFFSET 1.800000 -1.400000 0.085000
			CHANNELS 3 Zrotation Yrotation Xrotation
			JOINT LeftLeg
			{
				OFFSET 2.215000 -6.000000 0.000000
				CHANNELS 3 Zrotation Yrotation Xrotation
				JOINT LeftFoot
				{
					OFFSET 2.500000 -6.900000 0.000000
					CHANNELS 3 Zrotation Yrotation Xrotation
					JOINT LeftToeBase
					{
						OFFSET 0.200000 -0.500000 1.950000
						CHANNELS 3 Zrotation Yrotation Xrotation
						End Site
						{
							OFFSET 0.000000 0.000000 0.000000
						}
					}
				}
			}
		}
	}
	JOINT RHipJoint
	{
		OFFSET 0.000000 0.000000 0.000000
		CHANNELS 3 Zrotation Yrotation Xrotation
		JOINT RightUpLeg
		{
			OFFSET -1.800000 -1.400000 0.085000
			CHANNELS 3 Zrotation Yrotation Xrotation
			JOINT RightLeg
			{
				OFFSET -2.215000 -6.000000 0.000000
				CHANNELS 3 Zrotation Yrotation Xrotation
				JOINT RightFoot
				{
					OFFSET -2.500000 -6.900000 0.000000
					CHANNELS 3 Zrotation Yrotation Xrotation
					JOINT RightToeBase
					{
						OFFSET -0.200000 -0.500000 1.950000
						CHANNELS 3 Zrotation Yrotation Xrotation
						End Site
						{
							OFFSET 0.000000 0.000000 0.000000
						}
					}
				}
			}
		}
	}
	JOINT LowerBack
	{
		OFFSET 0.000000 0.000000 0.000000
		CHANNELS 3 Zrotation Yrotation Xrotation
		JOINT Spine
		{
			OFFSET -0.087000 1.940000 -0.288900
			CHANNELS 3 Zrotation Yrotation Xrotation
			JOINT Spine1
			{
				OFFSET 0.000000 1.950000 0.060000
				CHANNELS 3 Zrotation Yrotation Xrotation
				JOINT Neck
				{
					OFFSET 0.000000 0.000000 0.000000
					CHANNELS 3 Zrotation Yrotation Xrotation
					JOINT Neck1
					{
						OFFSET 0.000000 1.600000 0.340000
						CHANNELS 3 Zrotation Yrotation Xrotation
						JOINT Head
						{
							OFFSET 0.000000 1.667000 -0.240000
							CHANNELS 3 Zrotation Yrotation Xrotation
							End Site
							{
								OFFSET 0.000000 0.000000 0.000000
							}
						}
					}
				}
				JOINT LeftShoulder
				{
					OFFSET 0.000000 0.000000 0.000000
					CHANNELS 3 Zrotation Yrotation Xrotation
					JOINT LeftArm
					{
						OFFSET 2.700000 1.550000 -0.730000
						CHANNELS 3 Zrotation Yrotation Xrotation
						JOINT LeftForeArm
						{
							OFFSET 5.450000 0.000000 0.000000
							CHANNELS 3 Zrotation Yrotation Xrotation
							JOINT LeftHand
							{
								OFFSET 3.450000 0.000000 0.000000
								CHANNELS 3 Zrotation Yrotation Xrotation
								JOINT LeftHandIndex1
								{
									OFFSET 0.750000 0.000000 0.000000
									CHANNELS 3 Zrotation Yrotation Xrotation
									End Site
									{
										OFFSET 0.000000 0.000000 0.000000
									}
								}
							}
						}
					}
				}
				JOINT RightShoulder
				{
					OFFSET 0.000000 0.000000 0.000000
					CHANNELS 3 Zrotation Yrotation Xrotation
					JOINT RightArm
					{
						OFFSET -2.700000 1.550000 -0.730000
						CHANNELS 3 Zrotation Yrotation Xrotation
						JOINT RightForeArm
						{
							OFFSET -5.450000 0.000000 0.000000
							CHANNELS 3 Zrotation Yrotation Xrotation
							JOINT RightHand
							{
								OFFSET -3.450000 0.000000 0.000000
								CHANNELS 3 Zrotation Yrotation Xrotation
								JOINT RightHandIndex1
								{
									OFFSET -0.750000 0.000000 0.000000
									CHANNELS 3 Zrotation Yrotation Xrotation
									End Site
									{
										OFFSET 0.000000 0.000000 0.000000
									}
								}
							}
						}
					}
				}
			}
		}
	}
}
MOTION
Frames: 6
Frame Time: 0.016667
1.067890 15.553430 -2.312830 -6.691968 6.999674 -7.070776 -15.837407 14.451583 3.036915 10.847790 -5.098203 27.005163 -2.447245 9.806660 26.539728 1.012374 8.992719 1.637980 -0.032340 -0.268840 -0.092810 17.784778 -7.683146 4.520884 -5.112683 3.915366 -51.137266 18.104903 -15.232257 42.807484 -0.992021 -7.835607 1.355985 -0.330960 0.432320 0.769590 -1.980196 -7.613666 -8.732743 10.899212 -10.562493 48.265426 13.322122 -8.439510 2.862646 -1.767353 7.748010 -8.234949 9.305535 -5.945090 45.838082 -10.283290 5.491180 3.681060 4.316175 -0.628850 0.610089 7.848686 -8.917816 -2.801737 76.796241 -44.832161 -31.316940 -4.122893 3.297825 0.363200 0.330690 0.163420 0.198780 1.313242 -7.091718 2.233781 45.357661 -2.241592 -16.829872 -73.847396 46.898985 -32.890961 2.193675 -1.523395 0.056100 -0.230130 0.213800 0.120500 
1.102840 15.422870 -2.321740 -6.982741 5.196418 -7.021910 -15.931879 14.400844 3.021844 10.455395 -4.663657 27.624548 -3.556318 10.404102 26.840301 1.104694 9.287422 1.636456 -0.167480 -0.470240 -0.117470 17.754920 -7.262691 4.820909 -5.858231 5.558080 -53.156403 19.039315 -15.899783 45.254743 -1.053532 -8.401982 1.242979 -0.426650 0.520350 0.752390 -1.783730 -7.973056 -8.928372 12.119185 -9.963158 49.181723 13.143375 -6.462131 2.331555 -0.751608 7.821832 -8.910112 9.808215 -7.489751 46.529665 -14.283210 5.991670 9.012600 5.729145 -0.552219 -0.492534 14.909515 -4.488271 -1.114915 46.454901 -48.973910 -16.334923 -4.156405 3.599326 0.330030 0.419250 0.090750 0.187110 -2.645254 -6.305786 4.370843 43.737940 -7.001681 -16.806925 -82.015482 39.964336 -32.869682 2.286562 -1.726374 -0.015320 -0.188710 0.252380 0.102820 
1.155050 15.395580 -2.325940 -7.349257 4.872194 -7.938938 -15.873717 14.376139 3.054459 9.746271 -4.601181 28.435515 -3.308584 10.477092 27.707060 1.113072 9.487195 1.651901 -0.293150 -0.652890 -0.185130 17.803813 -7.322027 4.773636 -6.032830 5.009178 -52.579225 20.171394 -16.779624 45.586236 -1.024447 -8.712699 1.183243 -0.473210 0.634930 0.663920 -1.943925 -7.932750 -8.884349 14.302948 -11.890710 50.503451 11.748670 -7.245477 1.801018 -0.626558 6.230847 -8.045894 6.355672 -6.454533 46.081403 -14.230280 5.626320 13.282820 6.243165 1.468816 -1.441848 17.684817 -4.681576 0.824947 28.005299 -50.196281 -8.658057 -4.124540 3.846113 0.303900 0.480290 -0.048700 0.175090 -3.384393 -7.807724 4.285396 38.011284 -10.167511 -15.627529 -85.781513 40.736222 -34.274384 2.321612 -1.750476 -0.143550 -0.129930 0.299480 0.084160 
1.189760 15.442980 -2.318100 -6.876690 6.316813 -7.202835 -15.753206 14.269041 3.002855 8.815185 -4.422976 27.284442 -1.633019 9.597316 27.833078 0.864692 9.237932 1.699181 -0.262000 -0.682980 -0.083920 17.901049 -7.601091 4.711962 -7.053837 3.542127 -52.173774 21.198489 -16.954236 43.366131 -0.963296 -8.482083 1.211036 -0.427520 0.584420 0.593710 -2.265034 -7.376351 -8.770050 16.166303 -13.589716 47.066366 9.969927 -9.371762 3.909628 0.384824 5.489510 -7.637355 4.463829 -6.491333 50.292891 -15.441240 4.667640 12.344280 5.420042 2.598896 -2.087110 17.400935 -5.191244 1.520770 17.922308 -50.210165 -4.776550 -4.018273 3.821409 0.413400 0.429590 -0.061550 0.119300 -4.065030 -9.165447 4.515533 35.904908 -12.129015 -14.873290 -91.964895 44.222393 -40.938625 2.243026 -1.593592 -0.243660 -0.058940 0.319910 -0.009760 
1.193420 15.552440 -2.271230 -5.679328 7.010869 -4.831451 -15.656396 14.134172 2.941189 7.969899 -3.879210 24.840807 -1.298340 9.003667 26.793037 0.783536 8.725209 1.832474 -0.183090 -0.579520 -0.023220 17.989549 -7.850868 4.675315 -7.446927 2.830527 -52.125053 21.451209 -15.984905 39.707874 -0.876605 -7.785322 1.419638 -0.406580 0.493770 0.590690 -2.535576 -6.748604 -8.696295 16.107110 -14.243748 41.117671 8.434008 -11.628485 7.563818 1.236741 4.704068 -9.609521 2.816889 -5.270054 56.308013 -16.864080 5.497380 12.348300 4.027995 0.468502 -0.170270 14.626773 1.447787 1.255820 13.938679 -57.451166 -4.591443 -3.868947 3.795196 0.458590 0.358910 0.035130 0.142980 -4.337961 -7.112618 6.121109 35.998306 -14.110041 -14.278498 -101.474527 48.867306 -55.710640 2.157435 -1.337298 -0.191230 -0.061190 0.253820 0.000830 
1.208840 15.736370 -2.251200 -6.212291 6.531814 -2.822556 -15.412264 13.860641 2.843437 8.343761 -3.587536 22.382244 -2.131867 8.943621 25.510540 0.691308 8.379258 1.970076 -0.205400 -0.610440 -0.038670 18.193268 -8.389002 4.535395 -5.758183 3.268991 -50.634123 20.765431 -14.139004 34.858973 -0.645220 -6.676664 1.814239 -0.419550 0.521780 0.537530 -3.177176 -5.417554 -8.500729 20.028168 -15.798759 36.452272 4.622871 -12.809781 8.895872 1.848946 3.951544 -10.409676 1.668874 -4.730029 58.953294 -16.603400 5.213520 14.832400 2.821267 0.474522 0.519228 8.579307 2.540719 0.447014 12.910263 -65.060207 -5.738561 -3.805756 3.639972 0.456620 0.358610 0.007840 0.160400 -4.455185 -7.342376 7.219387 38.077141 -13.612480 -12.288774 -107.872695 54.756679 -70.912311 2.139025 -0.924778 -0.225200 -0.020750 0.240490 0.008890 
